<?xml version="1.0" encoding="utf-8"?>
<!-- Generator: Adobe Illustrator 27.2.0, SVG Export Plug-In . SVG Version: 6.00 Build 0)  -->
<svg version="1.1"
	 id="svg763" xmlns:svg="http://www.w3.org/2000/svg" xmlns:sodipodi="http://sodipodi.sourceforge.net/DTD/sodipodi-0.dtd" xmlns:inkscape="http://www.inkscape.org/namespaces/inkscape"
	 xmlns="http://www.w3.org/2000/svg" xmlns:xlink="http://www.w3.org/1999/xlink" x="0px" y="0px" viewBox="0 0 1363.2 639.9"
	 style="enable-background:new 0 0 1363.2 639.9;" xml:space="preserve">
<style type="text/css">
	.st0{fill-rule:evenodd;clip-rule:evenodd;fill:#EAEDF0;}
	.st1{fill-rule:evenodd;clip-rule:evenodd;fill:#D43901;}
</style>
<sodipodi:namedview  bordercolor="#000000" borderopacity="0.25" id="namedview765" inkscape:current-layer="layer1" inkscape:cx="1060.3827" inkscape:cy="690.17621" inkscape:deskcolor="#d1d1d1" inkscape:document-units="mm" inkscape:pagecheckerboard="0" inkscape:pageopacity="0.0" inkscape:showpageshadow="2" inkscape:window-height="2041" inkscape:window-maximized="0" inkscape:window-width="1916" inkscape:window-x="-9" inkscape:window-y="0" inkscape:zoom="0.64693624" pagecolor="#ffffff" showgrid="false">
	</sodipodi:namedview>
<path id="path226" class="st0" d="M435.7,472.3l90.9,90.9l-5.1,4.6c-117.2,95.6-286.4,95.6-403.6,0l-5.1-4.6l90.9-90.9l10.4,7.7
	c63.8,42.1,147.3,42.1,211.1,0L435.7,472.3z M76.3,112.9l90.9,90.9l-7.7,10.4c-42.1,63.8-42.1,147.3,0,211.1l7.7,10.4l-90.9,90.9
	l-4.6-5.1c-95.6-117.2-95.6-286.4,0-403.6L76.3,112.9z M526.5,76.3l-90.9,90.9l-10.4-7.7c-63.8-42.1-147.3-42.1-211.1,0l-10.4,7.7
	l-90.9-90.9l5.1-4.6c117.2-95.6,286.4-95.6,403.6,0L526.5,76.3z"/>
<path id="path228" class="st0" d="M564.1,111.9l325.6,325.6l-90.5,90.5L473.6,202.4L564.1,111.9z"/>
<path id="path234" class="st1" d="M1159.5,472.8l90.9,90.9l-5.1,4.6c-117.2,95.6-286.4,95.6-403.6,0l-5.1-4.6l90.9-90.9l10.4,7.7
	c63.8,42.1,147.3,42.1,211.1,0L1159.5,472.8z M1287,113.4l4.6,5.1c95.6,117.2,95.6,286.4,0,403.6l-4.6,5.1l-90.9-90.9l7.7-10.4
	c42.1-63.8,42.1-147.3,0-211.1l-7.7-10.4L1287,113.4z M1250.4,76.8l-90.9,90.9l-10.4-7.7c-63.8-42.1-147.3-42.1-211.1,0l-10.4,7.7
	l-90.9-90.9l5.1-4.6c117.2-95.6,286.4-95.6,403.6,0L1250.4,76.8z"/>
<path id="path236" class="st1" d="M472.9,438.7L798.6,113l90.5,90.5L563.4,529.1L472.9,438.7z"/>
<g>
	<path d="M273.3,79v-2.7l6.2-5.8c0.5-0.5,1-1,1.3-1.4s0.6-0.8,0.8-1.2s0.3-0.8,0.3-1.3c0-0.5-0.1-1-0.3-1.3s-0.6-0.7-1-0.9
		s-0.9-0.3-1.4-0.3c-0.5,0-1,0.1-1.4,0.3c-0.4,0.2-0.7,0.5-0.9,0.9c-0.2,0.4-0.3,0.9-0.3,1.4h-3.5c0-1.1,0.3-2.1,0.8-3
		c0.5-0.8,1.2-1.5,2.2-2c0.9-0.5,2-0.7,3.2-0.7c1.2,0,2.3,0.2,3.3,0.7c0.9,0.4,1.7,1,2.2,1.8s0.8,1.7,0.8,2.7c0,0.7-0.1,1.3-0.4,2
		c-0.3,0.6-0.7,1.4-1.4,2.1c-0.7,0.8-1.6,1.7-2.8,2.8l-2.5,2.5V76h7.3v3H273.3z"/>
	<path d="M290.6,79.2c-0.6,0-1-0.2-1.4-0.6c-0.4-0.4-0.6-0.9-0.6-1.4c0-0.6,0.2-1,0.6-1.4c0.4-0.4,0.9-0.6,1.4-0.6
		c0.5,0,1,0.2,1.4,0.6c0.4,0.4,0.6,0.9,0.6,1.4c0,0.4-0.1,0.7-0.3,1s-0.4,0.6-0.7,0.7C291.3,79.1,291,79.2,290.6,79.2z"/>
	<path d="M315.9,67.7h-3.7c-0.1-0.5-0.2-0.9-0.4-1.3c-0.2-0.4-0.5-0.7-0.8-1c-0.3-0.3-0.7-0.5-1.1-0.6c-0.4-0.1-0.9-0.2-1.4-0.2
		c-0.9,0-1.7,0.2-2.4,0.7c-0.7,0.4-1.2,1.1-1.6,1.9c-0.4,0.8-0.6,1.9-0.6,3.1c0,1.2,0.2,2.3,0.6,3.1s0.9,1.5,1.6,1.9
		c0.7,0.4,1.4,0.6,2.3,0.6c0.5,0,1-0.1,1.4-0.2c0.4-0.1,0.8-0.3,1.1-0.6s0.6-0.6,0.8-0.9c0.2-0.4,0.4-0.8,0.5-1.2l3.7,0
		c-0.1,0.8-0.3,1.6-0.7,2.3c-0.4,0.7-0.9,1.4-1.5,2c-0.6,0.6-1.4,1-2.3,1.4s-1.9,0.5-3,0.5c-1.6,0-2.9-0.4-4.2-1.1
		c-1.2-0.7-2.2-1.7-2.9-3.1c-0.7-1.3-1.1-3-1.1-4.8c0-1.9,0.4-3.5,1.1-4.9c0.7-1.3,1.7-2.4,2.9-3.1c1.2-0.7,2.6-1.1,4.1-1.1
		c1,0,2,0.1,2.8,0.4c0.9,0.3,1.6,0.7,2.3,1.2s1.2,1.2,1.6,2C315.5,65.7,315.7,66.6,315.9,67.7z"/>
	<path d="M324.4,79.3c-1.3,0-2.5-0.3-3.4-0.8c-1-0.6-1.7-1.4-2.2-2.4c-0.5-1-0.8-2.2-0.8-3.5c0-1.4,0.3-2.5,0.8-3.5
		c0.5-1,1.3-1.8,2.2-2.4c1-0.6,2.1-0.8,3.4-0.8c1.3,0,2.5,0.3,3.4,0.8c1,0.6,1.7,1.4,2.2,2.4c0.5,1,0.8,2.2,0.8,3.5
		c0,1.3-0.3,2.5-0.8,3.5c-0.5,1-1.3,1.8-2.2,2.4C326.8,79,325.7,79.3,324.4,79.3z M324.4,76.4c0.6,0,1.1-0.2,1.5-0.5
		s0.7-0.8,0.9-1.4c0.2-0.6,0.3-1.3,0.3-2c0-0.8-0.1-1.4-0.3-2c-0.2-0.6-0.5-1.1-0.9-1.4c-0.4-0.3-0.9-0.5-1.5-0.5
		c-0.6,0-1.1,0.2-1.5,0.5c-0.4,0.3-0.7,0.8-0.9,1.4c-0.2,0.6-0.3,1.3-0.3,2c0,0.8,0.1,1.4,0.3,2s0.5,1.1,0.9,1.4
		C323.3,76.3,323.8,76.4,324.4,76.4z"/>
	<path d="M338,79.2c-1,0-1.9-0.3-2.7-0.8s-1.4-1.3-1.9-2.3c-0.5-1-0.7-2.2-0.7-3.7c0-1.5,0.2-2.7,0.7-3.7c0.5-1,1.1-1.7,1.9-2.2
		c0.8-0.5,1.7-0.7,2.6-0.7c0.7,0,1.3,0.1,1.8,0.4c0.5,0.2,0.9,0.6,1.2,0.9c0.3,0.4,0.5,0.7,0.7,1.1h0.1v-6.6h3.6V79h-3.6v-2.1h-0.2
		c-0.2,0.4-0.4,0.7-0.7,1.1c-0.3,0.4-0.7,0.6-1.2,0.9C339.3,79.1,338.7,79.2,338,79.2z M339.1,76.3c0.6,0,1.1-0.2,1.5-0.5
		c0.4-0.3,0.7-0.8,0.9-1.4c0.2-0.6,0.3-1.3,0.3-2s-0.1-1.5-0.3-2c-0.2-0.6-0.5-1-0.9-1.3c-0.4-0.3-0.9-0.5-1.5-0.5
		c-0.6,0-1.1,0.2-1.5,0.5c-0.4,0.3-0.7,0.8-0.9,1.3c-0.2,0.6-0.3,1.2-0.3,2c0,0.8,0.1,1.4,0.3,2c0.2,0.6,0.5,1,0.9,1.4
		S338.5,76.3,339.1,76.3z"/>
	<path d="M354.4,79.3c-1.3,0-2.5-0.3-3.5-0.8s-1.7-1.3-2.2-2.3c-0.5-1-0.8-2.2-0.8-3.6c0-1.3,0.3-2.5,0.8-3.5c0.5-1,1.3-1.8,2.2-2.4
		c1-0.6,2.1-0.9,3.4-0.9c0.9,0,1.7,0.1,2.4,0.4c0.7,0.3,1.4,0.7,2,1.2c0.6,0.6,1,1.2,1.3,2.1c0.3,0.8,0.5,1.8,0.5,2.9v1h-11.1v-2.2
		h7.6c0-0.5-0.1-1-0.3-1.4c-0.2-0.4-0.5-0.7-0.9-1c-0.4-0.2-0.9-0.3-1.4-0.3c-0.6,0-1,0.1-1.5,0.4s-0.8,0.6-1,1s-0.4,0.9-0.4,1.4
		v2.1c0,0.6,0.1,1.2,0.4,1.7c0.2,0.5,0.6,0.8,1,1.1c0.4,0.3,1,0.4,1.6,0.4c0.4,0,0.8-0.1,1.1-0.2c0.3-0.1,0.6-0.3,0.9-0.5
		c0.2-0.2,0.4-0.5,0.5-0.8l3.4,0.2c-0.2,0.8-0.5,1.5-1,2.1c-0.5,0.6-1.2,1.1-2,1.4C356.4,79.1,355.5,79.3,354.4,79.3z"/>
</g>
<g>
	<path d="M551.4,212.7v17.5h-3.7v-14h-0.1l-4,2.5v-3.3l4.3-2.7H551.4z"/>
	<path d="M556.8,230.4c-0.6,0-1-0.2-1.4-0.6c-0.4-0.4-0.6-0.9-0.6-1.4c0-0.6,0.2-1,0.6-1.4c0.4-0.4,0.9-0.6,1.4-0.6
		c0.5,0,1,0.2,1.4,0.6c0.4,0.4,0.6,0.9,0.6,1.4c0,0.4-0.1,0.7-0.3,1s-0.4,0.6-0.7,0.7S557.2,230.4,556.8,230.4z"/>
	<path d="M566.6,230.2v-17.5h6.9c1.3,0,2.5,0.3,3.4,0.8s1.6,1.2,2.1,2.1s0.7,1.9,0.7,3.1c0,1.2-0.2,2.2-0.8,3.1s-1.2,1.6-2.2,2.1
		c-0.9,0.5-2.1,0.7-3.4,0.7H569v-3h3.8c0.7,0,1.3-0.1,1.8-0.4c0.5-0.2,0.8-0.6,1-1c0.2-0.4,0.3-0.9,0.3-1.5c0-0.6-0.1-1.1-0.3-1.5
		c-0.2-0.4-0.6-0.8-1-1s-1.1-0.4-1.8-0.4h-2.5v14.4H566.6z"/>
	<path d="M585.7,212.7v17.5h-3.6v-17.5H585.7z"/>
	<path d="M592.4,230.4c-0.8,0-1.6-0.1-2.2-0.4s-1.2-0.7-1.5-1.3s-0.6-1.3-0.6-2.2c0-0.7,0.1-1.3,0.4-1.8c0.3-0.5,0.6-0.9,1.1-1.2
		s1-0.5,1.6-0.7s1.2-0.3,1.9-0.3c0.8-0.1,1.4-0.2,1.8-0.2c0.5-0.1,0.8-0.2,1-0.3c0.2-0.1,0.3-0.4,0.3-0.6v-0.1c0-0.5-0.2-1-0.5-1.3
		c-0.3-0.3-0.8-0.4-1.4-0.4c-0.7,0-1.2,0.1-1.6,0.4c-0.4,0.3-0.6,0.6-0.8,1.1l-3.4-0.3c0.2-0.8,0.5-1.5,1-2.1c0.5-0.6,1.1-1,1.9-1.3
		c0.8-0.3,1.7-0.5,2.8-0.5c0.7,0,1.4,0.1,2.1,0.3c0.7,0.2,1.3,0.4,1.8,0.8s0.9,0.8,1.2,1.4s0.5,1.2,0.5,2v8.8h-3.4v-1.8h-0.1
		c-0.2,0.4-0.5,0.8-0.8,1.1c-0.4,0.3-0.8,0.6-1.3,0.7C593.6,230.3,593,230.4,592.4,230.4z M593.4,227.9c0.5,0,1-0.1,1.4-0.3
		s0.7-0.5,1-0.9c0.2-0.4,0.3-0.8,0.3-1.2v-1.4c-0.1,0.1-0.3,0.1-0.5,0.2c-0.2,0.1-0.4,0.1-0.7,0.2s-0.5,0.1-0.7,0.1
		s-0.5,0.1-0.7,0.1c-0.4,0.1-0.8,0.2-1.1,0.3c-0.3,0.1-0.6,0.3-0.7,0.5c-0.2,0.2-0.3,0.5-0.3,0.9c0,0.5,0.2,0.9,0.5,1.1
		C592.4,227.8,592.8,227.9,593.4,227.9z"/>
	<path d="M606.2,222.6v7.6h-3.6v-13.1h3.5v2.3h0.2c0.3-0.8,0.8-1.4,1.5-1.8c0.7-0.4,1.5-0.7,2.5-0.7c0.9,0,1.7,0.2,2.4,0.6
		c0.7,0.4,1.2,1,1.6,1.7s0.6,1.6,0.6,2.6v8.3H611v-7.7c0-0.8-0.2-1.4-0.6-1.9c-0.4-0.5-1-0.7-1.7-0.7c-0.5,0-0.9,0.1-1.3,0.3
		c-0.4,0.2-0.7,0.5-0.9,0.9C606.3,221.6,606.2,222,606.2,222.6z"/>
</g>
<g>
	<path d="M28.7,326.7c-1.3,0-2.4-0.2-3.4-0.7c-1-0.4-1.8-1-2.3-1.8c-0.6-0.8-0.9-1.7-0.9-2.7h3.7c0,0.4,0.2,0.8,0.4,1.1
		c0.3,0.3,0.6,0.6,1,0.7c0.4,0.2,0.9,0.3,1.5,0.3c0.6,0,1.1-0.1,1.5-0.3c0.4-0.2,0.8-0.5,1-0.8c0.2-0.4,0.4-0.8,0.4-1.2
		c0-0.5-0.1-0.9-0.4-1.2c-0.3-0.4-0.6-0.6-1.1-0.8c-0.5-0.2-1-0.3-1.7-0.3h-1.6v-2.7h1.6c0.6,0,1-0.1,1.5-0.3c0.4-0.2,0.8-0.5,1-0.8
		c0.2-0.3,0.4-0.7,0.4-1.2c0-0.4-0.1-0.8-0.3-1.2c-0.2-0.3-0.5-0.6-0.9-0.8s-0.8-0.3-1.3-0.3c-0.5,0-1,0.1-1.4,0.3
		c-0.4,0.2-0.7,0.4-1,0.8c-0.2,0.3-0.4,0.7-0.4,1.2h-3.5c0-1,0.3-1.9,0.9-2.7c0.6-0.8,1.3-1.4,2.3-1.8c0.9-0.4,2-0.7,3.2-0.7
		c1.2,0,2.3,0.2,3.2,0.7c0.9,0.4,1.6,1,2.1,1.8c0.5,0.7,0.8,1.6,0.7,2.5c0,1-0.3,1.8-0.9,2.4s-1.4,1.1-2.4,1.2v0.1
		c1.3,0.2,2.3,0.6,2.9,1.3s1,1.6,1,2.7c0,1-0.3,1.9-0.9,2.7c-0.6,0.8-1.4,1.4-2.4,1.8C31.2,326.5,30,326.7,28.7,326.7z"/>
	<path d="M39.7,326.7c-0.6,0-1-0.2-1.4-0.6c-0.4-0.4-0.6-0.9-0.6-1.4c0-0.6,0.2-1,0.6-1.4c0.4-0.4,0.9-0.6,1.4-0.6
		c0.5,0,1,0.2,1.4,0.6c0.4,0.4,0.6,0.9,0.6,1.4c0,0.4-0.1,0.7-0.3,1s-0.4,0.6-0.7,0.7C40.4,326.6,40.1,326.7,39.7,326.7z"/>
	<path d="M49.6,326.5V309h7c1.3,0,2.4,0.2,3.2,0.6c0.9,0.4,1.5,0.9,1.9,1.6s0.6,1.4,0.6,2.3c0,0.7-0.1,1.3-0.4,1.8
		c-0.3,0.5-0.6,0.9-1.1,1.3c-0.5,0.3-1,0.6-1.6,0.7v0.2c0.7,0,1.3,0.2,1.9,0.6c0.6,0.3,1.1,0.8,1.4,1.5s0.5,1.4,0.5,2.2
		c0,0.9-0.2,1.8-0.7,2.5c-0.5,0.7-1.1,1.3-2,1.7c-0.9,0.4-2,0.6-3.3,0.6H49.6z M53.3,316.3H56c0.5,0,1-0.1,1.4-0.3s0.7-0.4,0.9-0.8
		c0.2-0.3,0.3-0.7,0.3-1.2c0-0.6-0.2-1.1-0.7-1.5c-0.4-0.4-1.1-0.6-1.9-0.6h-2.8V316.3z M53.3,323.5h3c1,0,1.8-0.2,2.2-0.6
		s0.7-0.9,0.7-1.6c0-0.5-0.1-0.9-0.3-1.3s-0.6-0.7-1-0.9c-0.4-0.2-0.9-0.3-1.5-0.3h-3.1V323.5z"/>
	<path d="M73.8,320.9v-7.5h3.6v13.1h-3.5v-2.4h-0.1c-0.3,0.8-0.8,1.4-1.5,1.8c-0.7,0.5-1.5,0.7-2.5,0.7c-0.9,0-1.6-0.2-2.3-0.6
		c-0.7-0.4-1.2-1-1.6-1.7c-0.4-0.7-0.6-1.6-0.6-2.6v-8.3H69v7.7c0,0.8,0.2,1.4,0.6,1.8c0.4,0.4,1,0.7,1.6,0.7c0.4,0,0.8-0.1,1.2-0.3
		c0.4-0.2,0.7-0.5,0.9-0.9C73.7,322,73.8,321.5,73.8,320.9z"/>
	<path d="M82.1,311.7c-0.5,0-1-0.2-1.4-0.5c-0.4-0.4-0.6-0.8-0.6-1.3c0-0.5,0.2-0.9,0.6-1.3c0.4-0.4,0.8-0.5,1.4-0.5
		c0.5,0,1,0.2,1.4,0.5c0.4,0.4,0.6,0.8,0.6,1.3c0,0.5-0.2,0.9-0.6,1.3C83.1,311.5,82.7,311.7,82.1,311.7z M80.3,326.5v-13.1h3.6
		v13.1H80.3z"/>
	<path d="M90.5,309v17.5h-3.6V309H90.5z"/>
	<path d="M98.2,326.7c-1,0-1.9-0.3-2.7-0.8c-0.8-0.5-1.4-1.3-1.9-2.3s-0.7-2.2-0.7-3.7c0-1.5,0.2-2.7,0.7-3.7s1.1-1.7,1.9-2.2
		c0.8-0.5,1.7-0.7,2.6-0.7c0.7,0,1.3,0.1,1.8,0.4c0.5,0.2,0.9,0.6,1.2,0.9c0.3,0.4,0.5,0.7,0.7,1.1h0.1V309h3.6v17.5H102v-2.1h-0.2
		c-0.2,0.4-0.4,0.7-0.7,1.1c-0.3,0.4-0.7,0.6-1.2,0.9C99.5,326.6,98.9,326.7,98.2,326.7z M99.3,323.8c0.6,0,1.1-0.2,1.5-0.5
		c0.4-0.3,0.7-0.8,0.9-1.4c0.2-0.6,0.3-1.3,0.3-2c0-0.8-0.1-1.5-0.3-2c-0.2-0.6-0.5-1-0.9-1.3c-0.4-0.3-0.9-0.5-1.5-0.5
		c-0.6,0-1.1,0.2-1.5,0.5c-0.4,0.3-0.7,0.8-0.9,1.3c-0.2,0.6-0.3,1.2-0.3,2c0,0.8,0.1,1.4,0.3,2c0.2,0.6,0.5,1,0.9,1.4
		C98.2,323.6,98.7,323.8,99.3,323.8z"/>
</g>
<g>
	<path d="M278.2,575.3v-2.9l7.3-11.5h2.5v4h-1.5l-4.6,7.3v0.1h10.4v3H278.2z M286.6,578.4v-4l0.1-1.3V561h3.5v17.5H286.6z"/>
	<path d="M296.6,578.6c-0.6,0-1-0.2-1.4-0.6c-0.4-0.4-0.6-0.9-0.6-1.4c0-0.6,0.2-1,0.6-1.4s0.9-0.6,1.4-0.6c0.5,0,1,0.2,1.4,0.6
		s0.6,0.9,0.6,1.4c0,0.4-0.1,0.7-0.3,1c-0.2,0.3-0.4,0.6-0.7,0.7C297.3,578.5,297,578.6,296.6,578.6z"/>
	<path d="M305.8,564v-3h14.3v3h-5.3v14.4h-3.6V564H305.8z"/>
	<path d="M326.4,578.7c-1.3,0-2.5-0.3-3.5-0.8c-1-0.5-1.7-1.3-2.2-2.3c-0.5-1-0.8-2.2-0.8-3.6c0-1.3,0.3-2.5,0.8-3.5
		c0.5-1,1.3-1.8,2.2-2.4s2.1-0.9,3.4-0.9c0.9,0,1.7,0.1,2.4,0.4s1.4,0.7,2,1.2c0.6,0.6,1,1.2,1.3,2.1s0.5,1.8,0.5,2.9v1h-11.1v-2.2
		h7.6c0-0.5-0.1-1-0.3-1.4c-0.2-0.4-0.5-0.7-0.9-1c-0.4-0.2-0.9-0.3-1.4-0.3c-0.6,0-1,0.1-1.5,0.4c-0.4,0.3-0.8,0.6-1,1
		s-0.4,0.9-0.4,1.4v2.1c0,0.6,0.1,1.2,0.4,1.7c0.2,0.5,0.6,0.8,1,1.1c0.4,0.3,1,0.4,1.6,0.4c0.4,0,0.8-0.1,1.1-0.2
		c0.3-0.1,0.6-0.3,0.9-0.5c0.2-0.2,0.4-0.5,0.5-0.8l3.4,0.2c-0.2,0.8-0.5,1.5-1,2.1c-0.5,0.6-1.2,1.1-2,1.4
		C328.5,578.5,327.5,578.7,326.4,578.7z"/>
	<path d="M345.7,569.1l-3.3,0.2c-0.1-0.3-0.2-0.5-0.4-0.8s-0.4-0.4-0.7-0.6c-0.3-0.1-0.7-0.2-1.1-0.2c-0.6,0-1,0.1-1.4,0.4
		s-0.6,0.5-0.6,0.9c0,0.3,0.1,0.6,0.4,0.8c0.2,0.2,0.7,0.4,1.3,0.5l2.4,0.5c1.3,0.3,2.2,0.7,2.8,1.3s0.9,1.3,0.9,2.3
		c0,0.9-0.3,1.6-0.8,2.3c-0.5,0.6-1.2,1.2-2.1,1.5c-0.9,0.4-1.9,0.5-3,0.5c-1.7,0-3.1-0.4-4.1-1.1c-1-0.7-1.6-1.7-1.8-3l3.6-0.2
		c0.1,0.5,0.4,0.9,0.8,1.2c0.4,0.3,0.9,0.4,1.6,0.4c0.6,0,1.1-0.1,1.5-0.4c0.4-0.2,0.6-0.6,0.6-1c0-0.3-0.1-0.6-0.4-0.8
		c-0.3-0.2-0.7-0.4-1.3-0.5l-2.3-0.5c-1.3-0.3-2.2-0.7-2.9-1.3s-0.9-1.4-0.9-2.4c0-0.8,0.2-1.6,0.7-2.2s1.1-1.1,1.9-1.4
		s1.8-0.5,2.9-0.5c1.7,0,3,0.3,3.9,1C345,566.9,345.6,567.9,345.7,569.1z"/>
	<path d="M355.3,565.3v2.7h-7.9v-2.7H355.3z M349.2,562.2h3.6v12.2c0,0.3,0.1,0.6,0.2,0.8c0.1,0.2,0.2,0.3,0.4,0.4s0.4,0.1,0.6,0.1
		c0.2,0,0.3,0,0.5,0s0.3-0.1,0.4-0.1l0.6,2.7c-0.2,0.1-0.4,0.1-0.8,0.2c-0.3,0.1-0.7,0.1-1.2,0.1c-0.9,0-1.6-0.1-2.3-0.3
		c-0.7-0.3-1.2-0.7-1.5-1.2s-0.5-1.3-0.5-2.1V562.2z"/>
</g>
<g>
	<path d="M998.4,578.7c-1.3,0-2.5-0.2-3.5-0.6c-1-0.4-1.8-1-2.4-1.8c-0.6-0.7-0.9-1.6-0.9-2.5c0-0.7,0.2-1.4,0.5-2s0.8-1.1,1.4-1.5
		s1.2-0.7,1.9-0.8v-0.1c-0.9-0.2-1.7-0.6-2.3-1.4c-0.6-0.7-0.9-1.6-0.9-2.5c0-0.9,0.3-1.7,0.8-2.4c0.5-0.7,1.3-1.3,2.2-1.7
		s2-0.6,3.1-0.6c1.2,0,2.2,0.2,3.2,0.6c0.9,0.4,1.6,1,2.2,1.7c0.5,0.7,0.8,1.5,0.8,2.4c0,1-0.3,1.8-0.9,2.5
		c-0.6,0.7-1.3,1.2-2.2,1.4v0.1c0.7,0.1,1.3,0.4,1.9,0.8c0.6,0.4,1,0.9,1.4,1.5c0.3,0.6,0.5,1.3,0.5,2c0,0.9-0.3,1.8-0.9,2.5
		c-0.6,0.7-1.4,1.3-2.4,1.8C1000.8,578.4,999.7,578.7,998.4,578.7z M998.4,575.9c0.6,0,1.1-0.1,1.5-0.3s0.8-0.5,1-0.9
		c0.2-0.4,0.4-0.8,0.4-1.3c0-0.5-0.1-1-0.4-1.3s-0.6-0.7-1-0.9c-0.4-0.2-0.9-0.3-1.5-0.3c-0.6,0-1.1,0.1-1.5,0.3
		c-0.4,0.2-0.8,0.5-1,0.9c-0.3,0.4-0.4,0.8-0.4,1.3c0,0.5,0.1,0.9,0.4,1.3c0.2,0.4,0.6,0.7,1,0.9S997.8,575.9,998.4,575.9z
		 M998.4,568.1c0.5,0,0.9-0.1,1.3-0.3s0.7-0.5,0.9-0.8c0.2-0.4,0.3-0.8,0.3-1.2c0-0.5-0.1-0.9-0.3-1.2c-0.2-0.3-0.5-0.6-0.9-0.8
		s-0.8-0.3-1.3-0.3c-0.5,0-0.9,0.1-1.3,0.3s-0.7,0.5-0.9,0.8c-0.2,0.3-0.3,0.7-0.3,1.2c0,0.5,0.1,0.9,0.3,1.2
		c0.2,0.4,0.5,0.6,0.9,0.8S997.9,568.1,998.4,568.1z"/>
	<path d="M1009.4,578.6c-0.6,0-1-0.2-1.4-0.6c-0.4-0.4-0.6-0.9-0.6-1.4c0-0.6,0.2-1,0.6-1.4s0.9-0.6,1.4-0.6c0.5,0,1,0.2,1.4,0.6
		c0.4,0.4,0.6,0.9,0.6,1.4c0,0.4-0.1,0.7-0.3,1c-0.2,0.3-0.4,0.6-0.7,0.7C1010.1,578.5,1009.7,578.6,1009.4,578.6z"/>
	<path d="M1019.2,561h4.6l4.8,11.7h0.2l4.8-11.7h4.6v17.5h-3.6v-11.4h-0.1l-4.5,11.3h-2.4l-4.5-11.3h-0.1v11.4h-3.6V561z"/>
	<path d="M1047,578.7c-1.3,0-2.5-0.3-3.4-0.8c-1-0.6-1.7-1.4-2.2-2.4c-0.5-1-0.8-2.2-0.8-3.5c0-1.4,0.3-2.5,0.8-3.6s1.3-1.8,2.2-2.4
		c1-0.6,2.1-0.8,3.4-0.8c1.3,0,2.5,0.3,3.4,0.8c1,0.6,1.7,1.4,2.2,2.4c0.5,1,0.8,2.2,0.8,3.6c0,1.3-0.3,2.5-0.8,3.5
		c-0.5,1-1.3,1.8-2.2,2.4C1049.5,578.4,1048.3,578.7,1047,578.7z M1047,575.9c0.6,0,1.1-0.2,1.5-0.5c0.4-0.3,0.7-0.8,0.9-1.4
		c0.2-0.6,0.3-1.3,0.3-2c0-0.8-0.1-1.4-0.3-2c-0.2-0.6-0.5-1.1-0.9-1.4c-0.4-0.3-0.9-0.5-1.5-0.5c-0.6,0-1.1,0.2-1.5,0.5
		c-0.4,0.3-0.7,0.8-0.9,1.4c-0.2,0.6-0.3,1.3-0.3,2c0,0.8,0.1,1.4,0.3,2c0.2,0.6,0.5,1.1,0.9,1.4S1046.4,575.9,1047,575.9z"/>
	<path d="M1059.5,570.8v7.6h-3.6v-13.1h3.5v2.3h0.2c0.3-0.8,0.8-1.4,1.5-1.8c0.7-0.4,1.5-0.7,2.5-0.7c0.9,0,1.7,0.2,2.4,0.6
		c0.7,0.4,1.2,1,1.6,1.7s0.6,1.6,0.6,2.6v8.3h-3.6v-7.7c0-0.8-0.2-1.4-0.6-1.9c-0.4-0.5-1-0.7-1.7-0.7c-0.5,0-0.9,0.1-1.3,0.3
		c-0.4,0.2-0.7,0.5-0.9,0.9S1059.5,570.3,1059.5,570.8z"/>
	<path d="M1072.6,563.6c-0.5,0-1-0.2-1.4-0.5c-0.4-0.4-0.6-0.8-0.6-1.3s0.2-0.9,0.6-1.3c0.4-0.4,0.8-0.5,1.4-0.5
		c0.5,0,1,0.2,1.4,0.5c0.4,0.4,0.6,0.8,0.6,1.3s-0.2,0.9-0.6,1.3S1073.1,563.6,1072.6,563.6z M1070.7,578.4v-13.1h3.6v13.1H1070.7z"
		/>
	<path d="M1084.2,565.3v2.7h-7.9v-2.7H1084.2z M1078.1,562.2h3.6v12.2c0,0.3,0.1,0.6,0.2,0.8c0.1,0.2,0.2,0.3,0.4,0.4
		c0.2,0.1,0.4,0.1,0.6,0.1c0.2,0,0.3,0,0.5,0c0.2,0,0.3-0.1,0.4-0.1l0.6,2.7c-0.2,0.1-0.4,0.1-0.8,0.2c-0.3,0.1-0.7,0.1-1.2,0.1
		c-0.9,0-1.6-0.1-2.3-0.3c-0.7-0.3-1.2-0.7-1.5-1.2c-0.4-0.6-0.5-1.3-0.5-2.1V562.2z"/>
	<path d="M1092.4,578.7c-1.3,0-2.5-0.3-3.4-0.8c-1-0.6-1.7-1.4-2.2-2.4c-0.5-1-0.8-2.2-0.8-3.5c0-1.4,0.3-2.5,0.8-3.6
		c0.5-1,1.3-1.8,2.2-2.4c1-0.6,2.1-0.8,3.4-0.8s2.5,0.3,3.4,0.8c1,0.6,1.7,1.4,2.2,2.4c0.5,1,0.8,2.2,0.8,3.6c0,1.3-0.3,2.5-0.8,3.5
		c-0.5,1-1.3,1.8-2.2,2.4C1094.8,578.4,1093.7,578.7,1092.4,578.7z M1092.4,575.9c0.6,0,1.1-0.2,1.5-0.5s0.7-0.8,0.9-1.4
		c0.2-0.6,0.3-1.3,0.3-2c0-0.8-0.1-1.4-0.3-2c-0.2-0.6-0.5-1.1-0.9-1.4c-0.4-0.3-0.9-0.5-1.5-0.5c-0.6,0-1.1,0.2-1.5,0.5
		c-0.4,0.3-0.7,0.8-0.9,1.4c-0.2,0.6-0.3,1.3-0.3,2c0,0.8,0.1,1.4,0.3,2c0.2,0.6,0.5,1.1,0.9,1.4S1091.8,575.9,1092.4,575.9z"/>
	<path d="M1101.2,578.4v-13.1h3.5v2.3h0.1c0.2-0.8,0.6-1.4,1.2-1.8s1.2-0.6,1.9-0.6c0.2,0,0.4,0,0.6,0c0.2,0,0.4,0.1,0.6,0.1v3.2
		c-0.2-0.1-0.4-0.1-0.7-0.1c-0.3,0-0.6-0.1-0.8-0.1c-0.5,0-1,0.1-1.4,0.3c-0.4,0.2-0.7,0.6-1,1c-0.2,0.4-0.4,0.9-0.4,1.4v7.4H1101.2
		z"/>
</g>
<g>
	<path d="M1003.7,79.2c-0.9,0-1.8-0.2-2.6-0.5c-0.8-0.3-1.6-0.8-2.2-1.4c-0.7-0.7-1.2-1.5-1.6-2.6c-0.4-1.1-0.6-2.4-0.6-4
		c0-1.5,0.2-2.8,0.5-3.9c0.3-1.2,0.8-2.1,1.4-2.9c0.6-0.8,1.4-1.4,2.2-1.8s1.8-0.6,2.9-0.6c1.2,0,2.2,0.2,3.1,0.7
		c0.9,0.5,1.6,1.1,2.2,1.8c0.5,0.8,0.9,1.6,1,2.6h-3.6c-0.1-0.6-0.4-1.1-0.9-1.4s-1-0.5-1.7-0.5c-1.1,0-2,0.5-2.6,1.5
		c-0.6,1-0.9,2.3-0.9,4h0.1c0.3-0.5,0.6-1,1.1-1.3c0.4-0.4,1-0.6,1.5-0.8c0.6-0.2,1.2-0.3,1.8-0.3c1,0,2,0.2,2.8,0.7s1.4,1.2,1.9,2
		c0.5,0.8,0.7,1.8,0.7,2.9c0,1.2-0.3,2.2-0.8,3.2s-1.3,1.6-2.3,2.2S1005,79.2,1003.7,79.2z M1003.7,76.3c0.6,0,1.1-0.1,1.5-0.4
		c0.4-0.3,0.8-0.6,1.1-1.1c0.3-0.5,0.4-1,0.4-1.6s-0.1-1.1-0.4-1.6c-0.3-0.5-0.6-0.8-1-1.1c-0.4-0.3-0.9-0.4-1.5-0.4
		c-0.4,0-0.8,0.1-1.2,0.2c-0.4,0.2-0.7,0.4-0.9,0.7s-0.5,0.6-0.6,1s-0.2,0.8-0.2,1.2c0,0.6,0.1,1.1,0.4,1.5c0.3,0.5,0.6,0.8,1.1,1.1
		C1002.6,76.2,1003.1,76.3,1003.7,76.3z"/>
	<path d="M1014.3,79.2c-0.6,0-1-0.2-1.4-0.6c-0.4-0.4-0.6-0.9-0.6-1.4c0-0.6,0.2-1,0.6-1.4c0.4-0.4,0.9-0.6,1.4-0.6
		c0.5,0,1,0.2,1.4,0.6c0.4,0.4,0.6,0.9,0.6,1.4c0,0.4-0.1,0.7-0.3,1c-0.2,0.3-0.4,0.6-0.7,0.7S1014.6,79.2,1014.3,79.2z"/>
	<path d="M1030.3,79h-6.2V61.5h6.2c1.8,0,3.3,0.3,4.5,1c1.3,0.7,2.2,1.7,2.9,3c0.7,1.3,1,2.9,1,4.7c0,1.8-0.3,3.4-1,4.7
		c-0.7,1.3-1.7,2.3-2.9,3S1032.1,79,1030.3,79z M1027.8,75.8h2.3c1.1,0,2-0.2,2.8-0.6s1.3-1,1.7-1.8c0.4-0.8,0.6-1.9,0.6-3.2
		c0-1.3-0.2-2.3-0.6-3.2s-0.9-1.4-1.7-1.8c-0.7-0.4-1.7-0.6-2.8-0.6h-2.4V75.8z"/>
	<path d="M1047.4,79.3c-1.3,0-2.5-0.3-3.5-0.8s-1.7-1.3-2.2-2.3c-0.5-1-0.8-2.2-0.8-3.6c0-1.3,0.3-2.5,0.8-3.5
		c0.5-1,1.3-1.8,2.2-2.4c1-0.6,2.1-0.9,3.4-0.9c0.9,0,1.7,0.1,2.4,0.4c0.7,0.3,1.4,0.7,2,1.2c0.6,0.6,1,1.2,1.3,2.1
		c0.3,0.8,0.5,1.8,0.5,2.9v1h-11.1v-2.2h7.6c0-0.5-0.1-1-0.3-1.4c-0.2-0.4-0.5-0.7-0.9-1s-0.9-0.3-1.4-0.3c-0.6,0-1,0.1-1.5,0.4
		s-0.8,0.6-1,1s-0.4,0.9-0.4,1.4v2.1c0,0.6,0.1,1.2,0.4,1.7c0.2,0.5,0.6,0.8,1,1.1c0.4,0.3,1,0.4,1.6,0.4c0.4,0,0.8-0.1,1.1-0.2
		s0.6-0.3,0.9-0.5c0.2-0.2,0.4-0.5,0.5-0.8l3.4,0.2c-0.2,0.8-0.5,1.5-1,2.1s-1.2,1.1-2,1.4C1049.5,79.1,1048.5,79.3,1047.4,79.3z"/>
	<path d="M1055.8,83.9v-18h3.6v2.2h0.2c0.2-0.4,0.4-0.7,0.7-1.1c0.3-0.4,0.7-0.7,1.2-0.9c0.5-0.2,1.1-0.4,1.8-0.4
		c1,0,1.8,0.2,2.6,0.7s1.5,1.2,1.9,2.2c0.5,1,0.7,2.2,0.7,3.7c0,1.5-0.2,2.7-0.7,3.7c-0.5,1-1.1,1.8-1.9,2.3
		c-0.8,0.5-1.7,0.8-2.7,0.8c-0.7,0-1.3-0.1-1.8-0.3c-0.5-0.2-0.9-0.5-1.2-0.9c-0.3-0.4-0.6-0.7-0.7-1.1h-0.1v7H1055.8z M1059.4,72.5
		c0,0.8,0.1,1.5,0.3,2c0.2,0.6,0.5,1,0.9,1.4c0.4,0.3,0.9,0.5,1.5,0.5c0.6,0,1.1-0.2,1.5-0.5c0.4-0.3,0.7-0.8,0.9-1.4
		c0.2-0.6,0.3-1.3,0.3-2c0-0.8-0.1-1.4-0.3-2c-0.2-0.6-0.5-1-0.9-1.3c-0.4-0.3-0.9-0.5-1.5-0.5c-0.6,0-1.1,0.2-1.5,0.5
		s-0.7,0.8-0.9,1.3S1059.4,71.7,1059.4,72.5z"/>
	<path d="M1074.6,61.5V79h-3.6V61.5H1074.6z"/>
	<path d="M1083.4,79.3c-1.3,0-2.5-0.3-3.4-0.8c-1-0.6-1.7-1.4-2.2-2.4c-0.5-1-0.8-2.2-0.8-3.5c0-1.4,0.3-2.5,0.8-3.5
		c0.5-1,1.3-1.8,2.2-2.4c1-0.6,2.1-0.8,3.4-0.8s2.5,0.3,3.4,0.8c1,0.6,1.7,1.4,2.2,2.4c0.5,1,0.8,2.2,0.8,3.5c0,1.3-0.3,2.5-0.8,3.5
		c-0.5,1-1.3,1.8-2.2,2.4S1084.8,79.3,1083.4,79.3z M1083.5,76.4c0.6,0,1.1-0.2,1.5-0.5s0.7-0.8,0.9-1.4s0.3-1.3,0.3-2
		c0-0.8-0.1-1.4-0.3-2c-0.2-0.6-0.5-1.1-0.9-1.4c-0.4-0.3-0.9-0.5-1.5-0.5c-0.6,0-1.1,0.2-1.5,0.5c-0.4,0.3-0.7,0.8-0.9,1.4
		c-0.2,0.6-0.3,1.3-0.3,2c0,0.8,0.1,1.4,0.3,2s0.5,1.1,0.9,1.4S1082.9,76.4,1083.5,76.4z"/>
	<path d="M1094.1,83.9c-0.5,0-0.9,0-1.3-0.1c-0.4-0.1-0.7-0.2-1-0.3l0.8-2.7c0.4,0.1,0.8,0.2,1.2,0.2c0.3,0,0.6-0.1,0.9-0.2
		c0.3-0.2,0.5-0.5,0.6-0.9l0.2-0.6l-4.7-13.5h3.8l2.7,9.6h0.1l2.7-9.6h3.8l-5.1,14.5c-0.2,0.7-0.6,1.3-1,1.8
		c-0.4,0.5-0.9,0.9-1.6,1.2C1095.7,83.8,1095,83.9,1094.1,83.9z"/>
</g>
<g>
	<path d="M620.7,326.7c-1.2,0-2.3-0.2-3.2-0.7s-1.7-1.1-2.2-1.8c-0.6-0.8-0.8-1.7-0.9-2.7h3.6c0,0.7,0.3,1.2,0.9,1.6
		c0.5,0.4,1.2,0.6,1.9,0.6c0.6,0,1.1-0.1,1.5-0.4c0.4-0.3,0.8-0.6,1-1.1s0.4-1,0.4-1.6c0-0.6-0.1-1.2-0.4-1.6
		c-0.3-0.5-0.6-0.8-1.1-1.1s-1-0.4-1.6-0.4c-0.5,0-1,0.1-1.5,0.3c-0.5,0.2-0.9,0.5-1.1,0.9l-3.3-0.6l0.8-9.2h10.7v3h-7.6l-0.5,4.4
		h0.1c0.3-0.4,0.8-0.8,1.4-1.1c0.6-0.3,1.3-0.4,2.1-0.4c1.1,0,2,0.2,2.8,0.7c0.8,0.5,1.5,1.2,2,2c0.5,0.9,0.7,1.9,0.7,3
		c0,1.2-0.3,2.2-0.8,3.1s-1.3,1.6-2.3,2.1S622,326.7,620.7,326.7z"/>
	<path d="M631.4,326.7c-0.6,0-1-0.2-1.4-0.6s-0.6-0.9-0.6-1.4c0-0.6,0.2-1,0.6-1.4c0.4-0.4,0.9-0.6,1.4-0.6c0.5,0,1,0.2,1.4,0.6
		c0.4,0.4,0.6,0.9,0.6,1.4c0,0.4-0.1,0.7-0.3,1s-0.4,0.6-0.7,0.7C632.1,326.6,631.8,326.7,631.4,326.7z"/>
	<path d="M641.2,326.5V309h6.9c1.3,0,2.4,0.2,3.4,0.7s1.6,1.1,2.1,2c0.5,0.9,0.7,1.9,0.7,3c0,1.2-0.2,2.2-0.8,3s-1.2,1.5-2.2,1.9
		c-0.9,0.4-2.1,0.7-3.4,0.7h-4.6v-3h4c0.7,0,1.3-0.1,1.8-0.3c0.5-0.2,0.8-0.5,1-0.9s0.3-0.9,0.3-1.4c0-0.6-0.1-1.1-0.3-1.5
		c-0.2-0.4-0.6-0.7-1-0.9s-1.1-0.3-1.8-0.3h-2.5v14.4H641.2z M650.7,318.5l4.3,7.9h-4.1l-4.2-7.9H650.7z"/>
	<path d="M662.7,326.7c-1.3,0-2.5-0.3-3.5-0.8c-1-0.5-1.7-1.3-2.2-2.3c-0.5-1-0.8-2.2-0.8-3.6c0-1.3,0.3-2.5,0.8-3.5
		c0.5-1,1.3-1.8,2.2-2.4c1-0.6,2.1-0.9,3.4-0.9c0.9,0,1.7,0.1,2.4,0.4c0.7,0.3,1.4,0.7,2,1.2c0.6,0.6,1,1.2,1.3,2.1
		c0.3,0.8,0.5,1.8,0.5,2.9v1h-11.1v-2.2h7.6c0-0.5-0.1-1-0.3-1.4c-0.2-0.4-0.5-0.7-0.9-1c-0.4-0.2-0.9-0.3-1.4-0.3
		c-0.6,0-1,0.1-1.5,0.4s-0.8,0.6-1,1s-0.4,0.9-0.4,1.4v2.1c0,0.6,0.1,1.2,0.4,1.7c0.2,0.5,0.6,0.8,1,1.1c0.4,0.3,1,0.4,1.6,0.4
		c0.4,0,0.8-0.1,1.1-0.2c0.3-0.1,0.6-0.3,0.9-0.5c0.2-0.2,0.4-0.5,0.5-0.8l3.4,0.2c-0.2,0.8-0.5,1.5-1,2.1c-0.5,0.6-1.2,1.1-2,1.4
		C664.7,326.6,663.8,326.7,662.7,326.7z"/>
	<path d="M674.7,309v17.5H671V309H674.7z"/>
	<path d="M683.5,326.7c-1.3,0-2.5-0.3-3.5-0.8c-1-0.5-1.7-1.3-2.2-2.3c-0.5-1-0.8-2.2-0.8-3.6c0-1.3,0.3-2.5,0.8-3.5
		c0.5-1,1.3-1.8,2.2-2.4c1-0.6,2.1-0.9,3.4-0.9c0.9,0,1.7,0.1,2.4,0.4c0.7,0.3,1.4,0.7,2,1.2c0.6,0.6,1,1.2,1.3,2.1
		c0.3,0.8,0.5,1.8,0.5,2.9v1h-11.1v-2.2h7.6c0-0.5-0.1-1-0.3-1.4c-0.2-0.4-0.5-0.7-0.9-1c-0.4-0.2-0.9-0.3-1.4-0.3
		c-0.6,0-1,0.1-1.5,0.4s-0.8,0.6-1,1s-0.4,0.9-0.4,1.4v2.1c0,0.6,0.1,1.2,0.4,1.7c0.2,0.5,0.6,0.8,1,1.1c0.4,0.3,1,0.4,1.6,0.4
		c0.4,0,0.8-0.1,1.1-0.2c0.3-0.1,0.6-0.3,0.9-0.5c0.2-0.2,0.4-0.5,0.5-0.8l3.4,0.2c-0.2,0.8-0.5,1.5-1,2.1s-1.2,1.1-2,1.4
		C685.6,326.6,684.6,326.7,683.5,326.7z"/>
	<path d="M695.7,326.7c-0.8,0-1.6-0.1-2.2-0.4c-0.7-0.3-1.2-0.7-1.5-1.3c-0.4-0.6-0.6-1.3-0.6-2.2c0-0.7,0.1-1.3,0.4-1.8
		c0.3-0.5,0.6-0.9,1.1-1.2s1-0.5,1.6-0.7c0.6-0.2,1.2-0.3,1.9-0.3c0.8-0.1,1.4-0.2,1.8-0.2c0.5-0.1,0.8-0.2,1-0.3s0.3-0.4,0.3-0.6
		v-0.1c0-0.5-0.2-1-0.5-1.3c-0.3-0.3-0.8-0.4-1.4-0.4c-0.7,0-1.2,0.1-1.6,0.4c-0.4,0.3-0.6,0.6-0.8,1.1l-3.4-0.3
		c0.2-0.8,0.5-1.5,1-2.1c0.5-0.6,1.1-1,1.9-1.3c0.8-0.3,1.7-0.5,2.8-0.5c0.7,0,1.4,0.1,2.1,0.3s1.3,0.4,1.8,0.8s0.9,0.8,1.2,1.4
		c0.3,0.6,0.5,1.2,0.5,2v8.8h-3.4v-1.8h-0.1c-0.2,0.4-0.5,0.8-0.8,1.1c-0.4,0.3-0.8,0.6-1.3,0.7
		C696.9,326.6,696.3,326.7,695.7,326.7z M696.7,324.2c0.5,0,1-0.1,1.4-0.3s0.7-0.5,1-0.9c0.2-0.4,0.3-0.8,0.3-1.2v-1.4
		c-0.1,0.1-0.3,0.1-0.5,0.2c-0.2,0.1-0.4,0.1-0.7,0.2s-0.5,0.1-0.7,0.1s-0.5,0.1-0.7,0.1c-0.4,0.1-0.8,0.2-1.1,0.3s-0.6,0.3-0.7,0.5
		s-0.3,0.5-0.3,0.9c0,0.5,0.2,0.9,0.5,1.1C695.7,324.1,696.1,324.2,696.7,324.2z"/>
	<path d="M716.7,317.1l-3.3,0.2c-0.1-0.3-0.2-0.5-0.4-0.8s-0.4-0.4-0.7-0.6c-0.3-0.1-0.7-0.2-1.1-0.2c-0.6,0-1,0.1-1.4,0.4
		c-0.4,0.2-0.6,0.5-0.6,0.9c0,0.3,0.1,0.6,0.4,0.8c0.2,0.2,0.7,0.4,1.3,0.5l2.4,0.5c1.3,0.3,2.2,0.7,2.8,1.3
		c0.6,0.6,0.9,1.3,0.9,2.3c0,0.9-0.3,1.6-0.8,2.3c-0.5,0.6-1.2,1.2-2.1,1.5c-0.9,0.4-1.9,0.5-3,0.5c-1.7,0-3.1-0.4-4.1-1.1
		c-1-0.7-1.6-1.7-1.8-3l3.6-0.2c0.1,0.5,0.4,0.9,0.8,1.2c0.4,0.3,0.9,0.4,1.6,0.4c0.6,0,1.1-0.1,1.5-0.4c0.4-0.2,0.6-0.6,0.6-1
		c0-0.3-0.1-0.6-0.4-0.8c-0.3-0.2-0.7-0.4-1.3-0.5l-2.3-0.5c-1.3-0.3-2.2-0.7-2.9-1.3c-0.6-0.6-0.9-1.4-0.9-2.4
		c0-0.8,0.2-1.6,0.7-2.2c0.5-0.6,1.1-1.1,1.9-1.4s1.8-0.5,2.9-0.5c1.7,0,3,0.3,3.9,1C716,315,716.6,315.9,716.7,317.1z"/>
	<path d="M725.3,326.7c-1.3,0-2.5-0.3-3.5-0.8c-1-0.5-1.7-1.3-2.2-2.3c-0.5-1-0.8-2.2-0.8-3.6c0-1.3,0.3-2.5,0.8-3.5
		s1.3-1.8,2.2-2.4c1-0.6,2.1-0.9,3.4-0.9c0.9,0,1.7,0.1,2.4,0.4c0.7,0.3,1.4,0.7,2,1.2c0.6,0.6,1,1.2,1.3,2.1
		c0.3,0.8,0.5,1.8,0.5,2.9v1h-11.1v-2.2h7.6c0-0.5-0.1-1-0.3-1.4c-0.2-0.4-0.5-0.7-0.9-1c-0.4-0.2-0.9-0.3-1.4-0.3
		c-0.6,0-1,0.1-1.5,0.4c-0.4,0.3-0.8,0.6-1,1s-0.4,0.9-0.4,1.4v2.1c0,0.6,0.1,1.2,0.4,1.7s0.6,0.8,1,1.1s1,0.4,1.6,0.4
		c0.4,0,0.8-0.1,1.1-0.2c0.3-0.1,0.6-0.3,0.9-0.5c0.2-0.2,0.4-0.5,0.5-0.8l3.4,0.2c-0.2,0.8-0.5,1.5-1,2.1s-1.2,1.1-2,1.4
		C727.3,326.6,726.4,326.7,725.3,326.7z"/>
</g>
<g>
	<path d="M1241.6,326.5l7.2-14.3V312h-8.4v-3h12.2v3.1l-7.2,14.4H1241.6z"/>
	<path d="M1254.3,326.7c-0.6,0-1-0.2-1.4-0.6c-0.4-0.4-0.6-0.9-0.6-1.4c0-0.6,0.2-1,0.6-1.4c0.4-0.4,0.9-0.6,1.4-0.6
		c0.5,0,1,0.2,1.4,0.6c0.4,0.4,0.6,0.9,0.6,1.4c0,0.4-0.1,0.7-0.3,1c-0.2,0.3-0.4,0.6-0.7,0.7S1254.7,326.7,1254.3,326.7z"/>
	<path d="M1280.2,317.8c0,1.9-0.4,3.5-1.1,4.9c-0.7,1.3-1.7,2.4-2.9,3.1s-2.6,1.1-4.2,1.1c-1.6,0-2.9-0.4-4.2-1.1
		c-1.2-0.7-2.2-1.7-2.9-3.1c-0.7-1.3-1.1-3-1.1-4.8c0-1.9,0.4-3.5,1.1-4.9c0.7-1.3,1.7-2.4,2.9-3.1c1.2-0.7,2.6-1.1,4.2-1.1
		c1.5,0,2.9,0.4,4.2,1.1s2.2,1.7,2.9,3.1C1279.8,314.2,1280.2,315.9,1280.2,317.8z M1276.4,317.8c0-1.2-0.2-2.3-0.5-3.1
		s-0.9-1.5-1.5-1.9c-0.7-0.4-1.4-0.7-2.3-0.7c-0.9,0-1.7,0.2-2.3,0.7c-0.7,0.4-1.2,1.1-1.5,1.9c-0.4,0.8-0.5,1.9-0.5,3.1
		s0.2,2.3,0.5,3.1c0.4,0.8,0.9,1.5,1.5,1.9c0.7,0.4,1.4,0.7,2.3,0.7c0.9,0,1.7-0.2,2.3-0.7s1.2-1.1,1.5-1.9S1276.4,319,1276.4,317.8
		z"/>
	<path d="M1282.8,331.4v-18h3.6v2.2h0.2c0.2-0.4,0.4-0.7,0.7-1.1c0.3-0.4,0.7-0.7,1.2-0.9s1.1-0.4,1.8-0.4c1,0,1.8,0.2,2.6,0.7
		s1.5,1.2,1.9,2.2c0.5,1,0.7,2.2,0.7,3.7c0,1.5-0.2,2.7-0.7,3.7c-0.5,1-1.1,1.8-1.9,2.3s-1.7,0.8-2.7,0.8c-0.7,0-1.3-0.1-1.8-0.3
		s-0.9-0.5-1.2-0.9s-0.6-0.7-0.7-1.1h-0.1v7H1282.8z M1286.4,319.9c0,0.8,0.1,1.5,0.3,2c0.2,0.6,0.5,1,0.9,1.4
		c0.4,0.3,0.9,0.5,1.5,0.5c0.6,0,1.1-0.2,1.5-0.5c0.4-0.3,0.7-0.8,0.9-1.4c0.2-0.6,0.3-1.3,0.3-2c0-0.8-0.1-1.4-0.3-2
		c-0.2-0.6-0.5-1-0.9-1.3c-0.4-0.3-0.9-0.5-1.5-0.5c-0.6,0-1.1,0.2-1.5,0.5s-0.7,0.8-0.9,1.3
		C1286.5,318.5,1286.4,319.2,1286.4,319.9z"/>
	<path d="M1304,326.7c-1.3,0-2.5-0.3-3.5-0.8s-1.7-1.3-2.2-2.3c-0.5-1-0.8-2.2-0.8-3.6c0-1.3,0.3-2.5,0.8-3.5c0.5-1,1.3-1.8,2.2-2.4
		c1-0.6,2.1-0.9,3.4-0.9c0.9,0,1.7,0.1,2.4,0.4c0.7,0.3,1.4,0.7,2,1.2s1,1.2,1.3,2.1c0.3,0.8,0.5,1.8,0.5,2.9v1h-11.1v-2.2h7.6
		c0-0.5-0.1-1-0.3-1.4c-0.2-0.4-0.5-0.7-0.9-1c-0.4-0.2-0.9-0.3-1.4-0.3c-0.6,0-1,0.1-1.5,0.4c-0.4,0.3-0.8,0.6-1,1
		s-0.4,0.9-0.4,1.4v2.1c0,0.6,0.1,1.2,0.4,1.7c0.2,0.5,0.6,0.8,1,1.1s1,0.4,1.6,0.4c0.4,0,0.8-0.1,1.1-0.2c0.3-0.1,0.6-0.3,0.9-0.5
		c0.2-0.2,0.4-0.5,0.5-0.8l3.4,0.2c-0.2,0.8-0.5,1.5-1,2.1s-1.2,1.1-2,1.4C1306,326.6,1305.1,326.7,1304,326.7z"/>
	<path d="M1312.4,326.5v-13.1h3.5v2.3h0.1c0.2-0.8,0.6-1.4,1.2-1.8c0.6-0.4,1.2-0.6,1.9-0.6c0.2,0,0.4,0,0.6,0
		c0.2,0,0.4,0.1,0.6,0.1v3.2c-0.2-0.1-0.4-0.1-0.7-0.1c-0.3,0-0.6-0.1-0.8-0.1c-0.5,0-1,0.1-1.4,0.3c-0.4,0.2-0.7,0.5-1,1
		c-0.2,0.4-0.4,0.9-0.4,1.4v7.4H1312.4z"/>
	<path d="M1325.5,326.7c-0.8,0-1.6-0.1-2.2-0.4c-0.7-0.3-1.2-0.7-1.5-1.3c-0.4-0.6-0.6-1.3-0.6-2.2c0-0.7,0.1-1.3,0.4-1.8
		c0.3-0.5,0.6-0.9,1.1-1.2c0.5-0.3,1-0.5,1.6-0.7s1.2-0.3,1.9-0.3c0.8-0.1,1.4-0.2,1.8-0.2c0.5-0.1,0.8-0.2,1-0.3
		c0.2-0.1,0.3-0.4,0.3-0.6v-0.1c0-0.5-0.2-1-0.5-1.3s-0.8-0.4-1.4-0.4c-0.7,0-1.2,0.1-1.6,0.4c-0.4,0.3-0.6,0.6-0.8,1.1l-3.4-0.3
		c0.2-0.8,0.5-1.5,1-2.1c0.5-0.6,1.1-1,1.9-1.3c0.8-0.3,1.7-0.5,2.8-0.5c0.7,0,1.4,0.1,2.1,0.3c0.7,0.2,1.3,0.4,1.8,0.8
		c0.5,0.4,0.9,0.8,1.2,1.4c0.3,0.6,0.5,1.2,0.5,2v8.8h-3.4v-1.8h-0.1c-0.2,0.4-0.5,0.8-0.8,1.1c-0.4,0.3-0.8,0.6-1.3,0.7
		C1326.8,326.6,1326.2,326.7,1325.5,326.7z M1326.6,324.2c0.5,0,1-0.1,1.4-0.3s0.7-0.5,1-0.9c0.2-0.4,0.3-0.8,0.3-1.2v-1.4
		c-0.1,0.1-0.3,0.1-0.5,0.2c-0.2,0.1-0.4,0.1-0.7,0.2c-0.2,0-0.5,0.1-0.7,0.1s-0.5,0.1-0.7,0.1c-0.4,0.1-0.8,0.2-1.1,0.3
		s-0.6,0.3-0.7,0.5c-0.2,0.2-0.3,0.5-0.3,0.9c0,0.5,0.2,0.9,0.5,1.1C1325.6,324.1,1326,324.2,1326.6,324.2z"/>
	<path d="M1342.7,313.4v2.7h-7.9v-2.7H1342.7z M1336.6,310.3h3.6v12.2c0,0.3,0.1,0.6,0.2,0.8c0.1,0.2,0.2,0.3,0.4,0.4
		s0.4,0.1,0.6,0.1c0.2,0,0.3,0,0.5,0s0.3-0.1,0.4-0.1l0.6,2.7c-0.2,0.1-0.4,0.1-0.8,0.2c-0.3,0.1-0.7,0.1-1.2,0.1
		c-0.9,0-1.6-0.1-2.3-0.3s-1.2-0.7-1.5-1.2c-0.4-0.6-0.5-1.3-0.5-2.1V310.3z"/>
	<path d="M1350.9,326.7c-1.3,0-2.5-0.3-3.5-0.8s-1.7-1.3-2.2-2.3c-0.5-1-0.8-2.2-0.8-3.6c0-1.3,0.3-2.5,0.8-3.5
		c0.5-1,1.3-1.8,2.2-2.4c1-0.6,2.1-0.9,3.4-0.9c0.9,0,1.7,0.1,2.4,0.4c0.7,0.3,1.4,0.7,2,1.2s1,1.2,1.3,2.1c0.3,0.8,0.5,1.8,0.5,2.9
		v1h-11.1v-2.2h7.6c0-0.5-0.1-1-0.3-1.4c-0.2-0.4-0.5-0.7-0.9-1c-0.4-0.2-0.9-0.3-1.4-0.3c-0.6,0-1,0.1-1.5,0.4
		c-0.4,0.3-0.8,0.6-1,1s-0.4,0.9-0.4,1.4v2.1c0,0.6,0.1,1.2,0.4,1.7c0.2,0.5,0.6,0.8,1,1.1s1,0.4,1.6,0.4c0.4,0,0.8-0.1,1.1-0.2
		c0.3-0.1,0.6-0.3,0.9-0.5c0.2-0.2,0.4-0.5,0.5-0.8l3.4,0.2c-0.2,0.8-0.5,1.5-1,2.1s-1.2,1.1-2,1.4
		C1352.9,326.6,1352,326.7,1350.9,326.7z"/>
</g>
</svg>
